<svg xmlns="http://www.w3.org/2000/svg" viewBox="100.9 129.3 217.1 39.6" role="img" aria-label="proudleut">
  <!-- Schriftzug: erbt Farbe via currentColor (hell/dunkel rein per CSS) -->
  <path fill="currentColor" d="M136.3,166.9h7.6v-9c1.4,1.6,3.3,3.1,6.6,3.1c5.1,0,9.5-4.3,9.5-11.3v-0.1c0-6.9-4.4-11.2-9.6-11.2c-3.2,0-5.1,1.6-6.5,3.4
		v-2.9h-7.6V166.9L136.3,166.9z M148.2,154.6c-2.5,0-4.4-2-4.4-4.9v-0.1c0-2.9,2-4.9,4.4-4.9c2.4,0,4.4,2,4.4,4.9v0.1
		C152.6,152.6,150.6,154.6,148.2,154.6L148.2,154.6z M161.1,160.5h7.6v-6.7c0-4.9,2.2-7.2,6.2-7.2h0.6v-8c-3.6-0.2-5.6,1.8-6.8,4.7
		v-4.4h-7.6V160.5L161.1,160.5z M186.7,161c6.9,0,12-5.1,12-11.3v-0.1c0-6.1-5-11.2-11.9-11.2c-6.9,0-11.9,5.1-11.9,11.3v0.1
		C174.8,155.9,179.8,161,186.7,161L186.7,161z M186.7,154.6c-2.7,0-4.6-2.2-4.6-4.9v-0.1c0-2.6,1.8-4.8,4.5-4.8
		c2.7,0,4.6,2.2,4.6,4.9v0.1C191.3,152.4,189.5,154.6,186.7,154.6L186.7,154.6z M206.7,160.9c3.1,0,5.1-1.7,6.5-3.5v3h7.5v-21.6
		h-7.5v11.7c0,2.4-1.4,3.6-3.2,3.6s-3.1-1.3-3.1-3.6v-11.7h-7.6V153C199.4,157.9,202.2,160.9,206.7,160.9L206.7,160.9z M231.4,160.9
		c3.2,0,5.1-1.6,6.5-3.4v2.9h7.6v-29.1H238v10.2c-1.4-1.6-3.3-3.1-6.6-3.1c-5.1,0-9.5,4.3-9.5,11.3v0.1
		C221.8,156.7,226.3,160.9,231.4,160.9L231.4,160.9z M233.7,154.6c-2.4,0-4.4-2-4.4-4.9v-0.1c0-2.9,2-4.9,4.4-4.9
		c2.5,0,4.4,2.1,4.4,4.9v0.1C238.1,152.6,236.2,154.6,233.7,154.6L233.7,154.6z M247.6,160.5h7.5v-29.1h-7.5V160.5L247.6,160.5z
		 M267.8,161c4.3,0,7.3-1.8,9.3-4.4l-4.2-3.5c-1.6,1.5-3,2.2-4.8,2.2c-2.4,0-4.1-1.2-4.7-3.6h14.4c0-0.5,0-1.1,0-1.6
		c0-6.3-3.4-11.8-10.9-11.8c-6.4,0-10.9,5-10.9,11.3v0.1C256.2,156.4,261,161,267.8,161L267.8,161z M263.4,147.9
		c0.4-2.4,1.8-3.9,3.8-3.9c2.1,0,3.5,1.5,3.8,3.9H263.4L263.4,147.9z M286.1,160.9c3.1,0,5.1-1.7,6.5-3.5v3h7.5v-21.6h-7.5v11.7
		c0,2.4-1.4,3.6-3.2,3.6s-3.1-1.3-3.1-3.6v-11.7h-7.6V153C278.7,157.9,281.5,160.9,286.1,160.9L286.1,160.9z M310.7,160.9
		c2.1,0,3.9-0.5,5.3-1.3v-5.9c-0.9,0.4-1.9,0.7-2.9,0.7c-1.4,0-2.1-0.6-2.1-2.2v-7.3h5v-6.1h-5v-5.5h-7.5v5.5h-2.6v6.1h2.6v8.8
		C303.4,158.9,306.1,160.9,310.7,160.9L310.7,160.9z"/>
  <!-- Herz-Signet: proudleut-Lila via CSS-Variable, Fallback Markenfarbe -->
  <path fill="currentColor" d="M120.9,161.1c0,0,18.8-11.7,9.6-21.2c0,0-3.3-3.7-9.2-1.1c0,0-4.4,2.2-5.2,5.4C116.2,144.2,112.4,152.5,120.9,161.1
		L120.9,161.1z"/>
  <path fill="var(--pl-logo-heart, #75518B)" d="M118,163.4c0,0-15.1-6.6-15.1-17.1c0,0-0.3-8.5,7.7-8.9c0,0,4.3-0.4,7.6,4.5c3.8,5.2,8.7,9.8,12.1,8.5
		c0,0,2.2-0.5,2.8-4.7C133.1,145.7,134.2,155.6,118,163.4L118,163.4z"/>
</svg>